<svg id="visual" viewBox="0 0 1080 200" width="1080" height="200" xmlns="http://www.w3.org/2000/svg" xmlns:xlink="http://www.w3.org/1999/xlink" version="1.1"><path d="M0 131L22.5 131.8C45 132.7 90 134.3 135 136.5C180 138.7 225 141.3 270 144C315 146.7 360 149.3 405 152C450 154.7 495 157.3 540 154.3C585 151.3 630 142.7 675 138C720 133.3 765 132.7 810 137.7C855 142.7 900 153.3 945 151C990 148.7 1035 133.3 1057.5 125.7L1080 118L1080 0L1057.5 0C1035 0 990 0 945 0C900 0 855 0 810 0C765 0 720 0 675 0C630 0 585 0 540 0C495 0 450 0 405 0C360 0 315 0 270 0C225 0 180 0 135 0C90 0 45 0 22.5 0L0 0Z" fill="#fcaf3c"></path><path d="M0 119L22.5 118.3C45 117.7 90 116.3 135 116.3C180 116.3 225 117.7 270 109.8C315 102 360 85 405 82.8C450 80.7 495 93.3 540 93C585 92.7 630 79.3 675 76C720 72.7 765 79.3 810 88.3C855 97.3 900 108.7 945 106.2C990 103.7 1035 87.3 1057.5 79.2L1080 71L1080 0L1057.5 0C1035 0 990 0 945 0C900 0 855 0 810 0C765 0 720 0 675 0C630 0 585 0 540 0C495 0 450 0 405 0C360 0 315 0 270 0C225 0 180 0 135 0C90 0 45 0 22.5 0L0 0Z" fill="#fa9424"></path><path d="M0 27L22.5 27.8C45 28.7 90 30.3 135 33.8C180 37.3 225 42.7 270 48.8C315 55 360 62 405 62.7C450 63.3 495 57.7 540 50.3C585 43 630 34 675 37C720 40 765 55 810 60.8C855 66.7 900 63.3 945 61.3C990 59.3 1035 58.7 1057.5 58.3L1080 58L1080 0L1057.5 0C1035 0 990 0 945 0C900 0 855 0 810 0C765 0 720 0 675 0C630 0 585 0 540 0C495 0 450 0 405 0C360 0 315 0 270 0C225 0 180 0 135 0C90 0 45 0 22.5 0L0 0Z" fill="#f7770f"></path></svg>