<svg id="visual" viewBox="0 0 1080 200" width="1080" height="200" xmlns="http://www.w3.org/2000/svg" xmlns:xlink="http://www.w3.org/1999/xlink" version="1.1"><path d="M0 54L22.5 52.7C45 51.3 90 48.7 135 50.2C180 51.7 225 57.3 270 64.2C315 71 360 79 405 79.7C450 80.3 495 73.7 540 72.2C585 70.7 630 74.3 675 77C720 79.7 765 81.3 810 81.3C855 81.3 900 79.7 945 79.8C990 80 1035 82 1057.5 83L1080 84L1080 201L1057.5 201C1035 201 990 201 945 201C900 201 855 201 810 201C765 201 720 201 675 201C630 201 585 201 540 201C495 201 450 201 405 201C360 201 315 201 270 201C225 201 180 201 135 201C90 201 45 201 22.5 201L0 201Z" fill="#fcaf3c"></path><path d="M0 110L22.5 106.8C45 103.7 90 97.3 135 101.5C180 105.7 225 120.3 270 118.8C315 117.3 360 99.7 405 94.7C450 89.7 495 97.3 540 102.2C585 107 630 109 675 107C720 105 765 99 810 102.8C855 106.7 900 120.3 945 118.2C990 116 1035 98 1057.5 89L1080 80L1080 201L1057.5 201C1035 201 990 201 945 201C900 201 855 201 810 201C765 201 720 201 675 201C630 201 585 201 540 201C495 201 450 201 405 201C360 201 315 201 270 201C225 201 180 201 135 201C90 201 45 201 22.5 201L0 201Z" fill="#fa9424"></path><path d="M0 158L22.5 159.8C45 161.7 90 165.3 135 165.7C180 166 225 163 270 159.7C315 156.3 360 152.7 405 153.3C450 154 495 159 540 157.3C585 155.7 630 147.3 675 142.7C720 138 765 137 810 137.5C855 138 900 140 945 144.7C990 149.3 1035 156.7 1057.5 160.3L1080 164L1080 201L1057.5 201C1035 201 990 201 945 201C900 201 855 201 810 201C765 201 720 201 675 201C630 201 585 201 540 201C495 201 450 201 405 201C360 201 315 201 270 201C225 201 180 201 135 201C90 201 45 201 22.5 201L0 201Z" fill="#f7770f"></path></svg>