<svg id="visual" viewBox="0 0 900 450" width="900" height="450" xmlns="http://www.w3.org/2000/svg" xmlns:xlink="http://www.w3.org/1999/xlink" version="1.1"><path d="M0 108L21.5 112.7C43 117.3 86 126.7 128.8 129.8C171.7 133 214.3 130 257.2 131.3C300 132.7 343 138.3 385.8 141C428.7 143.7 471.3 143.3 514.2 136.2C557 129 600 115 642.8 111.7C685.7 108.3 728.3 115.7 771.2 114.7C814 113.7 857 104.3 878.5 99.7L900 95L900 0L878.5 0C857 0 814 0 771.2 0C728.3 0 685.7 0 642.8 0C600 0 557 0 514.2 0C471.3 0 428.7 0 385.8 0C343 0 300 0 257.2 0C214.3 0 171.7 0 128.8 0C86 0 43 0 21.5 0L0 0Z" fill="#fcaf3c"></path><path d="M0 67L21.5 68.3C43 69.7 86 72.3 128.8 78.2C171.7 84 214.3 93 257.2 93.5C300 94 343 86 385.8 85C428.7 84 471.3 90 514.2 91.2C557 92.3 600 88.7 642.8 86.2C685.7 83.7 728.3 82.3 771.2 78C814 73.7 857 66.3 878.5 62.7L900 59L900 0L878.5 0C857 0 814 0 771.2 0C728.3 0 685.7 0 642.8 0C600 0 557 0 514.2 0C471.3 0 428.7 0 385.8 0C343 0 300 0 257.2 0C214.3 0 171.7 0 128.8 0C86 0 43 0 21.5 0L0 0Z" fill="#fa9424"></path><path d="M0 51L21.5 51C43 51 86 51 128.8 46.3C171.7 41.7 214.3 32.3 257.2 31.2C300 30 343 37 385.8 42.7C428.7 48.3 471.3 52.7 514.2 49.3C557 46 600 35 642.8 35.5C685.7 36 728.3 48 771.2 52C814 56 857 52 878.5 50L900 48L900 0L878.5 0C857 0 814 0 771.2 0C728.3 0 685.7 0 642.8 0C600 0 557 0 514.2 0C471.3 0 428.7 0 385.8 0C343 0 300 0 257.2 0C214.3 0 171.7 0 128.8 0C86 0 43 0 21.5 0L0 0Z" fill="#f7770f"></path></svg>