<svg id="visual" viewBox="0 0 900 450" width="900" height="450" xmlns="http://www.w3.org/2000/svg" xmlns:xlink="http://www.w3.org/1999/xlink" version="1.1"><path d="M0 312L16.7 316.8C33.3 321.7 66.7 331.3 100 339.2C133.3 347 166.7 353 200 349.3C233.3 345.7 266.7 332.3 300 329C333.3 325.7 366.7 332.3 400 336.3C433.3 340.3 466.7 341.7 500 336.8C533.3 332 566.7 321 600 321.8C633.3 322.7 666.7 335.3 700 341.7C733.3 348 766.7 348 800 340.8C833.3 333.7 866.7 319.3 883.3 312.2L900 305L900 451L883.3 451C866.7 451 833.3 451 800 451C766.7 451 733.3 451 700 451C666.7 451 633.3 451 600 451C566.7 451 533.3 451 500 451C466.7 451 433.3 451 400 451C366.7 451 333.3 451 300 451C266.7 451 233.3 451 200 451C166.7 451 133.3 451 100 451C66.7 451 33.3 451 16.7 451L0 451Z" fill="#fcaf3c"></path><path d="M0 385L16.7 382C33.3 379 66.7 373 100 371C133.3 369 166.7 371 200 368.3C233.3 365.7 266.7 358.3 300 354.5C333.3 350.7 366.7 350.3 400 352.8C433.3 355.3 466.7 360.7 500 363.8C533.3 367 566.7 368 600 367.7C633.3 367.3 666.7 365.7 700 366.7C733.3 367.7 766.7 371.3 800 370.5C833.3 369.7 866.7 364.3 883.3 361.7L900 359L900 451L883.3 451C866.7 451 833.3 451 800 451C766.7 451 733.3 451 700 451C666.7 451 633.3 451 600 451C566.7 451 533.3 451 500 451C466.7 451 433.3 451 400 451C366.7 451 333.3 451 300 451C266.7 451 233.3 451 200 451C166.7 451 133.3 451 100 451C66.7 451 33.3 451 16.7 451L0 451Z" fill="#fa9424"></path><path d="M0 408L16.7 410.5C33.3 413 66.7 418 100 414.8C133.3 411.7 166.7 400.3 200 396.8C233.3 393.3 266.7 397.7 300 397C333.3 396.3 366.7 390.7 400 394C433.3 397.3 466.7 409.7 500 414.5C533.3 419.3 566.7 416.7 600 412.8C633.3 409 666.7 404 700 402.5C733.3 401 766.7 403 800 407C833.3 411 866.7 417 883.3 420L900 423L900 451L883.3 451C866.7 451 833.3 451 800 451C766.7 451 733.3 451 700 451C666.7 451 633.3 451 600 451C566.7 451 533.3 451 500 451C466.7 451 433.3 451 400 451C366.7 451 333.3 451 300 451C266.7 451 233.3 451 200 451C166.7 451 133.3 451 100 451C66.7 451 33.3 451 16.7 451L0 451Z" fill="#f7770f"></path></svg>