<svg id="visual" viewBox="0 0 1080 200" width="1080" height="200" xmlns="http://www.w3.org/2000/svg" xmlns:xlink="http://www.w3.org/1999/xlink" version="1.1"><path d="M0 70L22.5 71.5C45 73 90 76 135 76.3C180 76.7 225 74.3 270 67.3C315 60.3 360 48.7 405 43.7C450 38.7 495 40.3 540 39.3C585 38.3 630 34.7 675 40.8C720 47 765 63 810 66.2C855 69.3 900 59.7 945 53.7C990 47.7 1035 45.3 1057.5 44.2L1080 43L1080 201L1057.5 201C1035 201 990 201 945 201C900 201 855 201 810 201C765 201 720 201 675 201C630 201 585 201 540 201C495 201 450 201 405 201C360 201 315 201 270 201C225 201 180 201 135 201C90 201 45 201 22.5 201L0 201Z" fill="#55d94b"></path><path d="M0 136L22.5 130.3C45 124.7 90 113.3 135 110.5C180 107.7 225 113.3 270 111.7C315 110 360 101 405 93.7C450 86.3 495 80.7 540 84.7C585 88.7 630 102.3 675 102.3C720 102.3 765 88.7 810 91.3C855 94 900 113 945 115.8C990 118.7 1035 105.3 1057.5 98.7L1080 92L1080 201L1057.5 201C1035 201 990 201 945 201C900 201 855 201 810 201C765 201 720 201 675 201C630 201 585 201 540 201C495 201 450 201 405 201C360 201 315 201 270 201C225 201 180 201 135 201C90 201 45 201 22.5 201L0 201Z" fill="#33b22e"></path><path d="M0 165L22.5 159.5C45 154 90 143 135 138.7C180 134.3 225 136.7 270 139.8C315 143 360 147 405 153C450 159 495 167 540 165.2C585 163.3 630 151.7 675 150.3C720 149 765 158 810 158.5C855 159 900 151 945 149.7C990 148.3 1035 153.7 1057.5 156.3L1080 159L1080 201L1057.5 201C1035 201 990 201 945 201C900 201 855 201 810 201C765 201 720 201 675 201C630 201 585 201 540 201C495 201 450 201 405 201C360 201 315 201 270 201C225 201 180 201 135 201C90 201 45 201 22.5 201L0 201Z" fill="#008d0b"></path></svg>