<svg id="visual" viewBox="0 0 1080 200" width="1080" height="200" xmlns="http://www.w3.org/2000/svg" xmlns:xlink="http://www.w3.org/1999/xlink" version="1.1"><path d="M0 29L22.5 35.3C45 41.7 90 54.3 135 61.2C180 68 225 69 270 72.3C315 75.7 360 81.3 405 78.7C450 76 495 65 540 55C585 45 630 36 675 35C720 34 765 41 810 42.5C855 44 900 40 945 46.5C990 53 1035 70 1057.5 78.5L1080 87L1080 201L1057.5 201C1035 201 990 201 945 201C900 201 855 201 810 201C765 201 720 201 675 201C630 201 585 201 540 201C495 201 450 201 405 201C360 201 315 201 270 201C225 201 180 201 135 201C90 201 45 201 22.5 201L0 201Z" fill="#55d94b"></path><path d="M0 97L22.5 95.2C45 93.3 90 89.7 135 88C180 86.3 225 86.7 270 88.3C315 90 360 93 405 90.5C450 88 495 80 540 77.2C585 74.3 630 76.7 675 79.5C720 82.3 765 85.7 810 93.2C855 100.7 900 112.3 945 111.2C990 110 1035 96 1057.5 89L1080 82L1080 201L1057.5 201C1035 201 990 201 945 201C900 201 855 201 810 201C765 201 720 201 675 201C630 201 585 201 540 201C495 201 450 201 405 201C360 201 315 201 270 201C225 201 180 201 135 201C90 201 45 201 22.5 201L0 201Z" fill="#33b22e"></path><path d="M0 135L22.5 141.8C45 148.7 90 162.3 135 164.8C180 167.3 225 158.7 270 155.8C315 153 360 156 405 159.2C450 162.3 495 165.7 540 159.5C585 153.3 630 137.7 675 134.8C720 132 765 142 810 148.5C855 155 900 158 945 162.5C990 167 1035 173 1057.5 176L1080 179L1080 201L1057.5 201C1035 201 990 201 945 201C900 201 855 201 810 201C765 201 720 201 675 201C630 201 585 201 540 201C495 201 450 201 405 201C360 201 315 201 270 201C225 201 180 201 135 201C90 201 45 201 22.5 201L0 201Z" fill="#008d0b"></path></svg>