<svg id="visual" viewBox="0 0 1080 200" width="1080" height="200" xmlns="http://www.w3.org/2000/svg" xmlns:xlink="http://www.w3.org/1999/xlink" version="1.1"><path d="M0 72L22.5 68.3C45 64.7 90 57.3 135 54C180 50.7 225 51.3 270 53.2C315 55 360 58 405 59.2C450 60.3 495 59.7 540 66C585 72.3 630 85.7 675 82.2C720 78.7 765 58.3 810 52.5C855 46.7 900 55.3 945 56C990 56.7 1035 49.3 1057.5 45.7L1080 42L1080 201L1057.5 201C1035 201 990 201 945 201C900 201 855 201 810 201C765 201 720 201 675 201C630 201 585 201 540 201C495 201 450 201 405 201C360 201 315 201 270 201C225 201 180 201 135 201C90 201 45 201 22.5 201L0 201Z" fill="#55d94b"></path><path d="M0 72L22.5 75.2C45 78.3 90 84.7 135 91C180 97.3 225 103.7 270 103.8C315 104 360 98 405 92.8C450 87.7 495 83.3 540 86C585 88.7 630 98.3 675 105.5C720 112.7 765 117.3 810 118C855 118.7 900 115.3 945 113.8C990 112.3 1035 112.7 1057.5 112.8L1080 113L1080 201L1057.5 201C1035 201 990 201 945 201C900 201 855 201 810 201C765 201 720 201 675 201C630 201 585 201 540 201C495 201 450 201 405 201C360 201 315 201 270 201C225 201 180 201 135 201C90 201 45 201 22.5 201L0 201Z" fill="#33b22e"></path><path d="M0 129L22.5 135.2C45 141.3 90 153.7 135 152.5C180 151.3 225 136.7 270 133C315 129.3 360 136.7 405 141.8C450 147 495 150 540 150.7C585 151.3 630 149.7 675 146.8C720 144 765 140 810 139.3C855 138.7 900 141.3 945 148.5C990 155.7 1035 167.3 1057.5 173.2L1080 179L1080 201L1057.5 201C1035 201 990 201 945 201C900 201 855 201 810 201C765 201 720 201 675 201C630 201 585 201 540 201C495 201 450 201 405 201C360 201 315 201 270 201C225 201 180 201 135 201C90 201 45 201 22.5 201L0 201Z" fill="#008d0b"></path></svg>