<svg id="visual" viewBox="0 0 1080 200" width="1080" height="200" xmlns="http://www.w3.org/2000/svg" xmlns:xlink="http://www.w3.org/1999/xlink" version="1.1"><path d="M0 87L22.5 76.8C45 66.7 90 46.3 135 40.8C180 35.3 225 44.7 270 50.5C315 56.3 360 58.7 405 63.5C450 68.3 495 75.7 540 72.8C585 70 630 57 675 50C720 43 765 42 810 39.5C855 37 900 33 945 39.2C990 45.3 1035 61.7 1057.5 69.8L1080 78L1080 201L1057.5 201C1035 201 990 201 945 201C900 201 855 201 810 201C765 201 720 201 675 201C630 201 585 201 540 201C495 201 450 201 405 201C360 201 315 201 270 201C225 201 180 201 135 201C90 201 45 201 22.5 201L0 201Z" fill="#55d94b"></path><path d="M0 112L22.5 112.8C45 113.7 90 115.3 135 117.5C180 119.7 225 122.3 270 121.2C315 120 360 115 405 114.2C450 113.3 495 116.7 540 119.3C585 122 630 124 675 116.7C720 109.3 765 92.7 810 88.2C855 83.7 900 91.3 945 100.7C990 110 1035 121 1057.5 126.5L1080 132L1080 201L1057.5 201C1035 201 990 201 945 201C900 201 855 201 810 201C765 201 720 201 675 201C630 201 585 201 540 201C495 201 450 201 405 201C360 201 315 201 270 201C225 201 180 201 135 201C90 201 45 201 22.5 201L0 201Z" fill="#33b22e"></path><path d="M0 133L22.5 138.7C45 144.3 90 155.7 135 157C180 158.3 225 149.7 270 148C315 146.3 360 151.7 405 154.3C450 157 495 157 540 151.2C585 145.3 630 133.7 675 136.8C720 140 765 158 810 160.8C855 163.7 900 151.3 945 145.5C990 139.7 1035 140.3 1057.5 140.7L1080 141L1080 201L1057.5 201C1035 201 990 201 945 201C900 201 855 201 810 201C765 201 720 201 675 201C630 201 585 201 540 201C495 201 450 201 405 201C360 201 315 201 270 201C225 201 180 201 135 201C90 201 45 201 22.5 201L0 201Z" fill="#008d0b"></path></svg>