<svg id="visual" viewBox="0 0 1080 200" width="1080" height="200" xmlns="http://www.w3.org/2000/svg" xmlns:xlink="http://www.w3.org/1999/xlink" version="1.1"><path d="M0 103L22.5 100.2C45 97.3 90 91.7 135 89.5C180 87.3 225 88.7 270 83.8C315 79 360 68 405 58.5C450 49 495 41 540 36C585 31 630 29 675 35.5C720 42 765 57 810 56.7C855 56.3 900 40.7 945 40.5C990 40.3 1035 55.7 1057.5 63.3L1080 71L1080 201L1057.5 201C1035 201 990 201 945 201C900 201 855 201 810 201C765 201 720 201 675 201C630 201 585 201 540 201C495 201 450 201 405 201C360 201 315 201 270 201C225 201 180 201 135 201C90 201 45 201 22.5 201L0 201Z" fill="#55d94b"></path><path d="M0 129L22.5 120.7C45 112.3 90 95.7 135 96C180 96.3 225 113.7 270 119.5C315 125.3 360 119.7 405 112.7C450 105.7 495 97.3 540 96C585 94.7 630 100.3 675 107.3C720 114.3 765 122.7 810 117.2C855 111.7 900 92.3 945 90.3C990 88.3 1035 103.7 1057.5 111.3L1080 119L1080 201L1057.5 201C1035 201 990 201 945 201C900 201 855 201 810 201C765 201 720 201 675 201C630 201 585 201 540 201C495 201 450 201 405 201C360 201 315 201 270 201C225 201 180 201 135 201C90 201 45 201 22.5 201L0 201Z" fill="#33b22e"></path><path d="M0 164L22.5 161.3C45 158.7 90 153.3 135 155.8C180 158.3 225 168.7 270 169C315 169.3 360 159.7 405 159C450 158.3 495 166.7 540 165.5C585 164.3 630 153.7 675 144.8C720 136 765 129 810 129.3C855 129.7 900 137.3 945 139C990 140.7 1035 136.3 1057.5 134.2L1080 132L1080 201L1057.5 201C1035 201 990 201 945 201C900 201 855 201 810 201C765 201 720 201 675 201C630 201 585 201 540 201C495 201 450 201 405 201C360 201 315 201 270 201C225 201 180 201 135 201C90 201 45 201 22.5 201L0 201Z" fill="#008d0b"></path></svg>