<svg id="visual" viewBox="0 0 1080 200" width="1080" height="200" xmlns="http://www.w3.org/2000/svg" xmlns:xlink="http://www.w3.org/1999/xlink" version="1.1"><path d="M0 101L22.5 101.5C45 102 90 103 135 108.3C180 113.7 225 123.3 270 127.5C315 131.7 360 130.3 405 124.7C450 119 495 109 540 114.5C585 120 630 141 675 150.3C720 159.7 765 157.3 810 154.5C855 151.7 900 148.3 945 148.3C990 148.3 1035 151.7 1057.5 153.3L1080 155L1080 0L1057.5 0C1035 0 990 0 945 0C900 0 855 0 810 0C765 0 720 0 675 0C630 0 585 0 540 0C495 0 450 0 405 0C360 0 315 0 270 0C225 0 180 0 135 0C90 0 45 0 22.5 0L0 0Z" fill="#55d94b"></path><path d="M0 66L22.5 65.3C45 64.7 90 63.3 135 69.3C180 75.3 225 88.7 270 92C315 95.3 360 88.7 405 85.3C450 82 495 82 540 78.5C585 75 630 68 675 64.8C720 61.7 765 62.3 810 70.7C855 79 900 95 945 101.7C990 108.3 1035 105.7 1057.5 104.3L1080 103L1080 0L1057.5 0C1035 0 990 0 945 0C900 0 855 0 810 0C765 0 720 0 675 0C630 0 585 0 540 0C495 0 450 0 405 0C360 0 315 0 270 0C225 0 180 0 135 0C90 0 45 0 22.5 0L0 0Z" fill="#33b22e"></path><path d="M0 53L22.5 52.3C45 51.7 90 50.3 135 51.5C180 52.7 225 56.3 270 57.8C315 59.3 360 58.7 405 56.8C450 55 495 52 540 46C585 40 630 31 675 34.2C720 37.3 765 52.7 810 52.3C855 52 900 36 945 31C990 26 1035 32 1057.5 35L1080 38L1080 0L1057.5 0C1035 0 990 0 945 0C900 0 855 0 810 0C765 0 720 0 675 0C630 0 585 0 540 0C495 0 450 0 405 0C360 0 315 0 270 0C225 0 180 0 135 0C90 0 45 0 22.5 0L0 0Z" fill="#008d0b"></path></svg>